<?xml version="1.0" encoding="UTF-8"?>
<svg xmlns="http://www.w3.org/2000/svg" xmlns:xlink="http://www.w3.org/1999/xlink" width="1000px" height="1000px" viewBox="0 0 1000 1000" version="1.1">
<g id="surface1">
<path style=" stroke:none;fill-rule:nonzero;fill:rgb(80.392158%,83.92157%,95.686275%);fill-opacity:1;" d="M 416.667969 833.332031 L 583.332031 833.332031 L 583.332031 666.667969 L 416.667969 666.667969 Z M 166.667969 583.332031 L 333.332031 583.332031 L 333.332031 416.667969 L 166.667969 416.667969 Z M 416.667969 583.332031 L 583.332031 583.332031 L 583.332031 416.667969 L 416.667969 416.667969 Z M 666.667969 583.332031 L 833.332031 583.332031 L 833.332031 416.667969 L 666.667969 416.667969 Z M 666.667969 333.332031 L 833.332031 333.332031 L 833.332031 166.667969 L 666.667969 166.667969 Z M 333.332031 916.667969 L 333.332031 666.667969 L 83.332031 666.667969 L 83.332031 333.332031 L 583.332031 333.332031 L 583.332031 83.332031 L 916.667969 83.332031 L 916.667969 666.667969 L 666.667969 666.667969 L 666.667969 916.667969 Z M 333.332031 916.667969 "/>
</g>
</svg>
